<?xml version="1.0" encoding="utf-8"?>
<!-- Generator: Adobe Illustrator 25.0.0, SVG Export Plug-In . SVG Version: 6.00 Build 0)  -->
<svg version="1.1" id="Layer_1" xmlns="http://www.w3.org/2000/svg" xmlns:xlink="http://www.w3.org/1999/xlink" x="0px" y="0px"
	 viewBox="0 0 20.3 40.5" style="enable-background:new 0 0 20.3 40.5;" xml:space="preserve">
<style type="text/css">
	.st0{fill:#7B9D6F;}
	.st1{fill:#DFDFDF;}
</style>
<g transform="translate(0, 0)">
	<path class="st0" d="M6.6,15.8l-1.1-1.1c-0.3-0.3-0.3-0.7,0-1l5-5c0.3-0.3,0.3-0.7,0-1l-5-5c-0.3-0.3-0.3-0.7,0-1l1.1-1.1
		c0.3-0.3,0.7-0.3,1,0l7.2,7.2c0.3,0.3,0.3,0.7,0,1l-7.2,7.2C7.3,16.1,6.9,16.1,6.6,15.8z"/>
</g>
<g transform="translate(0, 16)">
	<path class="st1" d="M6.6,24.1L5.5,23c-0.3-0.3-0.3-0.7,0-1l5-5c0.3-0.3,0.3-0.7,0-1l-5-5c-0.3-0.3-0.3-0.7,0-1l1.1-1.1
		c0.3-0.3,0.7-0.3,1,0l7.2,7.2c0.3,0.3,0.3,0.7,0,1l-7.2,7.2C7.3,24.4,6.9,24.4,6.6,24.1z"/>
</g>
</svg>
